<?xml version="1.0" encoding="UTF-8" standalone="no"?><svg xmlns="http://www.w3.org/2000/svg" xmlns:xlink="http://www.w3.org/1999/xlink" contentScriptType="application/ecmascript" contentStyleType="text/css" height="689px" preserveAspectRatio="none" style="width:1037px;height:689px;background:#FFFFFF;" version="1.1" viewBox="0 0 1037 689" width="1037px" zoomAndPan="magnify"><defs><filter height="300%" id="f1yvd6m9lrga1" width="300%" x="-1" y="-1"><feGaussianBlur result="blurOut" stdDeviation="2.0"/><feColorMatrix in="blurOut" result="blurOut2" type="matrix" values="0 0 0 0 0 0 0 0 0 0 0 0 0 0 0 0 0 0 .4 0"/><feOffset dx="4.0" dy="4.0" in="blurOut2" result="blurOut3"/><feBlend in="SourceGraphic" in2="blurOut3" mode="normal"/></filter></defs><g><!--MD5=[36d966c8da22f754e05bf9082953d502]
cluster Authentication--><polygon fill="#FFFFFF" filter="url(#f1yvd6m9lrga1)" points="506,410,618,410,625,432.4883,781,432.4883,781,548,506,548,506,410" style="stroke:#000000;stroke-width:1.5;"/><line style="stroke:#000000;stroke-width:1.5;" x1="506" x2="625" y1="432.4883" y2="432.4883"/><text fill="#000000" font-family="sans-serif" font-size="14" font-weight="bold" lengthAdjust="spacing" textLength="106" x="510" y="425.5352">Authentication</text><!--MD5=[4df75b64c9979a5534adc815bd86527f]
cluster Accounts--><polygon fill="#FFFFFF" filter="url(#f1yvd6m9lrga1)" points="470,6,541,6,548,28.4883,668,28.4883,668,386,470,386,470,6" style="stroke:#000000;stroke-width:1.5;"/><line style="stroke:#000000;stroke-width:1.5;" x1="470" x2="548" y1="28.4883" y2="28.4883"/><text fill="#000000" font-family="sans-serif" font-size="14" font-weight="bold" lengthAdjust="spacing" textLength="65" x="474" y="21.5352">Accounts</text><!--MD5=[64b000dc64fa2cef50e55b6ea7d6d903]
cluster Quiz data--><polygon fill="#FFFFFF" filter="url(#f1yvd6m9lrga1)" points="286,261,362,261,369,283.4883,446,283.4883,446,682,286,682,286,261" style="stroke:#000000;stroke-width:1.5;"/><line style="stroke:#000000;stroke-width:1.5;" x1="286" x2="369" y1="283.4883" y2="283.4883"/><text fill="#000000" font-family="sans-serif" font-size="14" font-weight="bold" lengthAdjust="spacing" textLength="70" x="290" y="276.5352">Quiz data</text><!--MD5=[8ed07da5b998e04d7ffe0a148ed7825a]
cluster Quiz attempt data--><polygon fill="#FFFFFF" filter="url(#f1yvd6m9lrga1)" points="16,261,154,261,161,283.4883,262,283.4883,262,541.5,16,541.5,16,261" style="stroke:#000000;stroke-width:1.5;"/><line style="stroke:#000000;stroke-width:1.5;" x1="16" x2="161" y1="283.4883" y2="283.4883"/><text fill="#000000" font-family="sans-serif" font-size="14" font-weight="bold" lengthAdjust="spacing" textLength="132" x="20" y="276.5352">Quiz attempt data</text><!--MD5=[2ca1536628238a7dc78c5d90808014f9]
class Session--><rect codeLine="10" fill="#FEFECE" filter="url(#f1yvd6m9lrga1)" height="60.9551" id="Session" style="stroke:#A80036;stroke-width:1.5;" width="87" x="522.5" y="458"/><ellipse cx="543.35" cy="474" fill="#ADD1B2" rx="11" ry="11" style="stroke:#A80036;stroke-width:1.0;"/><path d="M545.8231,480.1431 Q545.2421,480.4419 544.6029,480.5913 Q543.9638,480.7407 543.2582,480.7407 Q540.7514,480.7407 539.4315,479.0889 Q538.1117,477.437 538.1117,474.3159 Q538.1117,471.1865 539.4315,469.5347 Q540.7514,467.8828 543.2582,467.8828 Q543.9638,467.8828 544.6112,468.0322 Q545.2587,468.1816 545.8231,468.4805 L545.8231,471.2031 Q545.1923,470.6221 544.5988,470.3523 Q544.0053,470.0825 543.3744,470.0825 Q542.0297,470.0825 541.3449,471.1492 Q540.6601,472.2158 540.6601,474.3159 Q540.6601,476.4077 541.3449,477.4744 Q542.0297,478.541 543.3744,478.541 Q544.0053,478.541 544.5988,478.2712 Q545.1923,478.0015 545.8231,477.4204 Z " fill="#000000"/><text fill="#000000" font-family="sans-serif" font-size="12" lengthAdjust="spacing" textLength="42" x="558.65" y="478.5352">Session</text><line style="stroke:#A80036;stroke-width:1.5;" x1="523.5" x2="608.5" y1="490" y2="490"/><text fill="#000000" font-family="sans-serif" font-size="11" lengthAdjust="spacing" textLength="75" x="528.5" y="504.6348">user: Account</text><line style="stroke:#A80036;stroke-width:1.5;" x1="523.5" x2="608.5" y1="510.9551" y2="510.9551"/><!--MD5=[f9a29335b499db729be669fd1bd54958]
class Account--><rect codeLine="14" fill="#FEFECE" filter="url(#f1yvd6m9lrga1)" height="86.8652" id="Account" style="stroke:#A80036;stroke-width:1.5;" width="120" x="645" y="445"/><ellipse cx="679.35" cy="461" fill="#A9DCDF" rx="11" ry="11" style="stroke:#A80036;stroke-width:1.0;"/><path d="M679.4633,456.5981 L678.3095,461.6699 L680.6254,461.6699 Z M677.9691,454.3569 L680.9657,454.3569 L684.3109,466.75 L681.8622,466.75 L681.0985,463.687 L677.8197,463.687 L677.0727,466.75 L674.6239,466.75 Z " fill="#000000"/><text fill="#000000" font-family="sans-serif" font-size="12" font-style="italic" lengthAdjust="spacing" textLength="45" x="697.65" y="465.5352">Account</text><line style="stroke:#A80036;stroke-width:1.5;" x1="646" x2="764" y1="477" y2="477"/><text fill="#000000" font-family="sans-serif" font-size="11" lengthAdjust="spacing" textLength="91" x="651" y="491.6348">username: string</text><text fill="#000000" font-family="sans-serif" font-size="11" lengthAdjust="spacing" textLength="90" x="651" y="504.5898">password: string</text><text fill="#000000" font-family="sans-serif" font-size="11" lengthAdjust="spacing" textLength="108" x="651" y="517.5449">sessions: [Sessions]</text><line style="stroke:#A80036;stroke-width:1.5;" x1="646" x2="764" y1="523.8652" y2="523.8652"/><!--MD5=[f6516cf320c6f29c8f5b7f891cd14058]
class Root--><rect codeLine="25" fill="#FEFECE" filter="url(#f1yvd6m9lrga1)" height="60.9551" id="Root" style="stroke:#A80036;stroke-width:1.5;" width="100" x="538" y="41"/><ellipse cx="571.9" cy="57" fill="#ADD1B2" rx="11" ry="11" style="stroke:#A80036;stroke-width:1.0;"/><path d="M574.3731,63.1431 Q573.7921,63.4419 573.1529,63.5913 Q572.5138,63.7407 571.8082,63.7407 Q569.3014,63.7407 567.9815,62.0889 Q566.6617,60.437 566.6617,57.3159 Q566.6617,54.1865 567.9815,52.5347 Q569.3014,50.8828 571.8082,50.8828 Q572.5138,50.8828 573.1612,51.0322 Q573.8087,51.1816 574.3731,51.4805 L574.3731,54.2031 Q573.7423,53.6221 573.1488,53.3523 Q572.5553,53.0825 571.9244,53.0825 Q570.5797,53.0825 569.8949,54.1492 Q569.2101,55.2158 569.2101,57.3159 Q569.2101,59.4077 569.8949,60.4744 Q570.5797,61.541 571.9244,61.541 Q572.5553,61.541 573.1488,61.2712 Q573.7423,61.0015 574.3731,60.4204 Z " fill="#000000"/><text fill="#000000" font-family="sans-serif" font-size="12" lengthAdjust="spacing" textLength="26" x="590.1" y="61.5352">Root</text><line style="stroke:#A80036;stroke-width:1.5;" x1="539" x2="637" y1="73" y2="73"/><text fill="#000000" font-family="sans-serif" font-size="11" lengthAdjust="spacing" textLength="88" x="544" y="87.6348">admins: [Admin]</text><line style="stroke:#A80036;stroke-width:1.5;" x1="539" x2="637" y1="93.9551" y2="93.9551"/><!--MD5=[db6d18d8099558415abc41d00477ab92]
class Admin--><rect codeLine="29" fill="#FEFECE" filter="url(#f1yvd6m9lrga1)" height="73.9102" id="Admin" style="stroke:#A80036;stroke-width:1.5;" width="134" x="510" y="162"/><ellipse cx="554.25" cy="178" fill="#ADD1B2" rx="11" ry="11" style="stroke:#A80036;stroke-width:1.0;"/><path d="M556.7231,184.1431 Q556.1421,184.4419 555.5029,184.5913 Q554.8638,184.7407 554.1582,184.7407 Q551.6514,184.7407 550.3315,183.0889 Q549.0117,181.437 549.0117,178.3159 Q549.0117,175.1865 550.3315,173.5347 Q551.6514,171.8828 554.1582,171.8828 Q554.8638,171.8828 555.5112,172.0322 Q556.1587,172.1816 556.7231,172.4805 L556.7231,175.2031 Q556.0923,174.6221 555.4988,174.3523 Q554.9053,174.0825 554.2744,174.0825 Q552.9297,174.0825 552.2449,175.1492 Q551.5601,176.2158 551.5601,178.3159 Q551.5601,180.4077 552.2449,181.4744 Q552.9297,182.541 554.2744,182.541 Q554.9053,182.541 555.4988,182.2712 Q556.0923,182.0015 556.7231,181.4204 Z " fill="#000000"/><text fill="#000000" font-family="sans-serif" font-size="12" lengthAdjust="spacing" textLength="37" x="574.75" y="182.5352">Admin</text><line style="stroke:#A80036;stroke-width:1.5;" x1="511" x2="643" y1="194" y2="194"/><text fill="#000000" font-family="sans-serif" font-size="11" lengthAdjust="spacing" textLength="116" x="516" y="208.6348">createdUsers: [Users]</text><text fill="#000000" font-family="sans-serif" font-size="11" lengthAdjust="spacing" textLength="122" x="516" y="221.5898">createdQuizzes: [Quiz]</text><line style="stroke:#A80036;stroke-width:1.5;" x1="511" x2="643" y1="227.9102" y2="227.9102"/><!--MD5=[3fd616f346a44cd59a91eb10b19e157c]
class User--><rect codeLine="34" fill="#FEFECE" filter="url(#f1yvd6m9lrga1)" height="60.9551" id="User" style="stroke:#A80036;stroke-width:1.5;" width="166" x="486" y="309"/><ellipse cx="551.75" cy="325" fill="#ADD1B2" rx="11" ry="11" style="stroke:#A80036;stroke-width:1.0;"/><path d="M554.2231,331.1431 Q553.6421,331.4419 553.0029,331.5913 Q552.3638,331.7407 551.6582,331.7407 Q549.1514,331.7407 547.8315,330.0889 Q546.5117,328.437 546.5117,325.3159 Q546.5117,322.1865 547.8315,320.5347 Q549.1514,318.8828 551.6582,318.8828 Q552.3638,318.8828 553.0112,319.0322 Q553.6587,319.1816 554.2231,319.4805 L554.2231,322.2031 Q553.5923,321.6221 552.9988,321.3523 Q552.4053,321.0825 551.7744,321.0825 Q550.4297,321.0825 549.7449,322.1492 Q549.0601,323.2158 549.0601,325.3159 Q549.0601,327.4077 549.7449,328.4744 Q550.4297,329.541 551.7744,329.541 Q552.4053,329.541 552.9988,329.2712 Q553.5923,329.0015 554.2231,328.4204 Z " fill="#000000"/><text fill="#000000" font-family="sans-serif" font-size="12" lengthAdjust="spacing" textLength="26" x="572.25" y="329.5352">User</text><line style="stroke:#A80036;stroke-width:1.5;" x1="487" x2="651" y1="341" y2="341"/><text fill="#000000" font-family="sans-serif" font-size="11" lengthAdjust="spacing" textLength="154" x="492" y="355.6348">quizAttempts: [QuizAttempt]</text><line style="stroke:#A80036;stroke-width:1.5;" x1="487" x2="651" y1="361.9551" y2="361.9551"/><!--MD5=[67f5bdafb709b09f80738cdb2228938c]
class Quiz--><rect codeLine="48" fill="#FEFECE" filter="url(#f1yvd6m9lrga1)" height="86.8652" id="Quiz" style="stroke:#A80036;stroke-width:1.5;" width="128" x="302" y="296"/><ellipse cx="348.75" cy="312" fill="#ADD1B2" rx="11" ry="11" style="stroke:#A80036;stroke-width:1.0;"/><path d="M351.2231,318.1431 Q350.6421,318.4419 350.0029,318.5913 Q349.3638,318.7407 348.6582,318.7407 Q346.1514,318.7407 344.8315,317.0889 Q343.5117,315.437 343.5117,312.3159 Q343.5117,309.1865 344.8315,307.5347 Q346.1514,305.8828 348.6582,305.8828 Q349.3638,305.8828 350.0112,306.0322 Q350.6587,306.1816 351.2231,306.4805 L351.2231,309.2031 Q350.5923,308.6221 349.9988,308.3523 Q349.4053,308.0825 348.7744,308.0825 Q347.4297,308.0825 346.7449,309.1492 Q346.0601,310.2158 346.0601,312.3159 Q346.0601,314.4077 346.7449,315.4744 Q347.4297,316.541 348.7744,316.541 Q349.4053,316.541 349.9988,316.2712 Q350.5923,316.0015 351.2231,315.4204 Z " fill="#000000"/><text fill="#000000" font-family="sans-serif" font-size="12" lengthAdjust="spacing" textLength="26" x="369.25" y="316.5352">Quiz</text><line style="stroke:#A80036;stroke-width:1.5;" x1="303" x2="429" y1="328" y2="328"/><text fill="#000000" font-family="sans-serif" font-size="11" lengthAdjust="spacing" textLength="67" x="308" y="342.6348">name: string</text><text fill="#000000" font-family="sans-serif" font-size="11" lengthAdjust="spacing" textLength="104" x="308" y="355.5898">description: string?</text><text fill="#000000" font-family="sans-serif" font-size="11" lengthAdjust="spacing" textLength="116" x="308" y="368.5449">questions: [Question]</text><line style="stroke:#A80036;stroke-width:1.5;" x1="303" x2="429" y1="374.8652" y2="374.8652"/><!--MD5=[fc7123defb831ecdd44b2d9bcef6cceb]
class Question--><rect codeLine="54" fill="#FEFECE" filter="url(#f1yvd6m9lrga1)" height="73.9102" id="Question" style="stroke:#A80036;stroke-width:1.5;" width="110" x="309" y="451.5"/><ellipse cx="336.6" cy="467.5" fill="#ADD1B2" rx="11" ry="11" style="stroke:#A80036;stroke-width:1.0;"/><path d="M339.0731,473.6431 Q338.4921,473.9419 337.8529,474.0913 Q337.2138,474.2407 336.5082,474.2407 Q334.0014,474.2407 332.6815,472.5889 Q331.3617,470.937 331.3617,467.8159 Q331.3617,464.6865 332.6815,463.0347 Q334.0014,461.3828 336.5082,461.3828 Q337.2138,461.3828 337.8612,461.5322 Q338.5087,461.6816 339.0731,461.9805 L339.0731,464.7031 Q338.4423,464.1221 337.8488,463.8523 Q337.2553,463.5825 336.6244,463.5825 Q335.2797,463.5825 334.5949,464.6492 Q333.9101,465.7158 333.9101,467.8159 Q333.9101,469.9077 334.5949,470.9744 Q335.2797,472.041 336.6244,472.041 Q337.2553,472.041 337.8488,471.7712 Q338.4423,471.5015 339.0731,470.9204 Z " fill="#000000"/><text fill="#000000" font-family="sans-serif" font-size="12" lengthAdjust="spacing" textLength="50" x="353.4" y="472.0352">Question</text><line style="stroke:#A80036;stroke-width:1.5;" x1="310" x2="418" y1="483.5" y2="483.5"/><text fill="#000000" font-family="sans-serif" font-size="11" lengthAdjust="spacing" textLength="59" x="315" y="498.1348">text: string</text><text fill="#000000" font-family="sans-serif" font-size="11" lengthAdjust="spacing" textLength="98" x="315" y="511.0898">answers: [Answer]</text><line style="stroke:#A80036;stroke-width:1.5;" x1="310" x2="418" y1="517.4102" y2="517.4102"/><!--MD5=[f9fadfa5a66b7e5a67b370cd443ffe52]
class Answer--><rect codeLine="59" fill="#FEFECE" filter="url(#f1yvd6m9lrga1)" height="73.9102" id="Answer" style="stroke:#A80036;stroke-width:1.5;" width="111" x="306.5" y="592"/><ellipse cx="338.15" cy="608" fill="#ADD1B2" rx="11" ry="11" style="stroke:#A80036;stroke-width:1.0;"/><path d="M340.6231,614.1431 Q340.0421,614.4419 339.4029,614.5913 Q338.7638,614.7407 338.0582,614.7407 Q335.5514,614.7407 334.2315,613.0889 Q332.9117,611.437 332.9117,608.3159 Q332.9117,605.1865 334.2315,603.5347 Q335.5514,601.8828 338.0582,601.8828 Q338.7638,601.8828 339.4112,602.0322 Q340.0587,602.1816 340.6231,602.4805 L340.6231,605.2031 Q339.9923,604.6221 339.3988,604.3523 Q338.8053,604.0825 338.1744,604.0825 Q336.8297,604.0825 336.1449,605.1492 Q335.4601,606.2158 335.4601,608.3159 Q335.4601,610.4077 336.1449,611.4744 Q336.8297,612.541 338.1744,612.541 Q338.8053,612.541 339.3988,612.2712 Q339.9923,612.0015 340.6231,611.4204 Z " fill="#000000"/><text fill="#000000" font-family="sans-serif" font-size="12" lengthAdjust="spacing" textLength="42" x="355.85" y="612.5352">Answer</text><line style="stroke:#A80036;stroke-width:1.5;" x1="307.5" x2="416.5" y1="624" y2="624"/><text fill="#000000" font-family="sans-serif" font-size="11" lengthAdjust="spacing" textLength="59" x="312.5" y="638.6348">text: string</text><text fill="#000000" font-family="sans-serif" font-size="11" lengthAdjust="spacing" textLength="99" x="312.5" y="651.5898">isCorrect: boolean</text><line style="stroke:#A80036;stroke-width:1.5;" x1="307.5" x2="416.5" y1="657.9102" y2="657.9102"/><!--MD5=[b2dab1b700f8c84a2f43b75b07c8ddd5]
class QuizAttempt--><rect codeLine="70" fill="#FEFECE" filter="url(#f1yvd6m9lrga1)" height="86.8652" id="QuizAttempt" style="stroke:#A80036;stroke-width:1.5;" width="214" x="32" y="296"/><ellipse cx="98.75" cy="312" fill="#ADD1B2" rx="11" ry="11" style="stroke:#A80036;stroke-width:1.0;"/><path d="M101.2231,318.1431 Q100.6421,318.4419 100.0029,318.5913 Q99.3638,318.7407 98.6582,318.7407 Q96.1514,318.7407 94.8315,317.0889 Q93.5117,315.437 93.5117,312.3159 Q93.5117,309.1865 94.8315,307.5347 Q96.1514,305.8828 98.6582,305.8828 Q99.3638,305.8828 100.0112,306.0322 Q100.6587,306.1816 101.2231,306.4805 L101.2231,309.2031 Q100.5923,308.6221 99.9988,308.3523 Q99.4053,308.0825 98.7744,308.0825 Q97.4297,308.0825 96.7449,309.1492 Q96.0601,310.2158 96.0601,312.3159 Q96.0601,314.4077 96.7449,315.4744 Q97.4297,316.541 98.7744,316.541 Q99.4053,316.541 99.9988,316.2712 Q100.5923,316.0015 101.2231,315.4204 Z " fill="#000000"/><text fill="#000000" font-family="sans-serif" font-size="12" lengthAdjust="spacing" textLength="72" x="119.25" y="316.5352">QuizAttempt</text><line style="stroke:#A80036;stroke-width:1.5;" x1="33" x2="245" y1="328" y2="328"/><text fill="#000000" font-family="sans-serif" font-size="11" lengthAdjust="spacing" textLength="95" x="38" y="342.6348">attemptDate: Date</text><text fill="#000000" font-family="sans-serif" font-size="11" lengthAdjust="spacing" textLength="54" x="38" y="355.5898">quiz: Quiz</text><text fill="#000000" font-family="sans-serif" font-size="11" lengthAdjust="spacing" textLength="202" x="38" y="368.5449">questionAttempts: [QuestionAttempt]</text><line style="stroke:#A80036;stroke-width:1.5;" x1="33" x2="245" y1="374.8652" y2="374.8652"/><!--MD5=[8b64c21d9a100c5edfcdadda2860784b]
class QuestionAttempt--><rect codeLine="76" fill="#FEFECE" filter="url(#f1yvd6m9lrga1)" height="73.9102" id="QuestionAttempt" style="stroke:#A80036;stroke-width:1.5;" width="200" x="42" y="451.5"/><ellipse cx="89.75" cy="467.5" fill="#ADD1B2" rx="11" ry="11" style="stroke:#A80036;stroke-width:1.0;"/><path d="M92.2231,473.6431 Q91.6421,473.9419 91.0029,474.0913 Q90.3638,474.2407 89.6582,474.2407 Q87.1514,474.2407 85.8315,472.5889 Q84.5117,470.937 84.5117,467.8159 Q84.5117,464.6865 85.8315,463.0347 Q87.1514,461.3828 89.6582,461.3828 Q90.3638,461.3828 91.0112,461.5322 Q91.6587,461.6816 92.2231,461.9805 L92.2231,464.7031 Q91.5923,464.1221 90.9988,463.8523 Q90.4053,463.5825 89.7744,463.5825 Q88.4297,463.5825 87.7449,464.6492 Q87.0601,465.7158 87.0601,467.8159 Q87.0601,469.9077 87.7449,470.9744 Q88.4297,472.041 89.7744,472.041 Q90.4053,472.041 90.9988,471.7712 Q91.5923,471.5015 92.2231,470.9204 Z " fill="#000000"/><text fill="#000000" font-family="sans-serif" font-size="12" lengthAdjust="spacing" textLength="96" x="110.25" y="472.0352">QuestionAttempt</text><line style="stroke:#A80036;stroke-width:1.5;" x1="43" x2="241" y1="483.5" y2="483.5"/><text fill="#000000" font-family="sans-serif" font-size="11" lengthAdjust="spacing" textLength="188" x="48" y="498.1348">questionAttempt: QuestionAttempt</text><text fill="#000000" font-family="sans-serif" font-size="11" lengthAdjust="spacing" textLength="135" x="48" y="511.0898">selectedAnswer: Answer?</text><line style="stroke:#A80036;stroke-width:1.5;" x1="43" x2="241" y1="517.4102" y2="517.4102"/><path d="M684,43.5 L684,99.4316 L1028,99.4316 L1028,53.5 L1018,43.5 L684,43.5 " fill="#FBFB77" filter="url(#f1yvd6m9lrga1)" style="stroke:#A80036;stroke-width:1.0;"/><path d="M1018,43.5 L1018,53.5 L1028,53.5 L1018,43.5 " fill="#FBFB77" style="stroke:#A80036;stroke-width:1.0;"/><text fill="#000000" font-family="sans-serif" font-size="13" font-weight="bold" lengthAdjust="spacing" text-decoration="underline" textLength="227" x="690" y="61.0684">Class/Entity relationship diagram</text><text fill="#000000" font-family="sans-serif" font-size="13" lengthAdjust="spacing" textLength="199" x="690" y="76.3789">Each class will have and id field</text><text fill="#000000" font-family="sans-serif" font-size="13" lengthAdjust="spacing" textLength="323" x="690" y="91.6895">Some classes will have a creation and updated field</text><!--MD5=[82eb372d7a1a8baac263d9324b3935c9]
link Session to Account--><path codeLine="20" d="M617.91,488.5 C624.05,488.5 630.19,488.5 636.33,488.5 " fill="none" id="Session-Account" style="stroke:#A80036;stroke-width:1.0;"/><line style="stroke:#A80036;stroke-width:1.0;" x1="640.7" x2="640.7" y1="484.5" y2="492.5"/><line style="stroke:#A80036;stroke-width:1.0;" x1="637.7" x2="637.7" y1="484.5" y2="492.5"/><line style="stroke:#A80036;stroke-width:1.0;" x1="636.7" x2="644.7" y1="488.5" y2="488.5"/><line style="stroke:#A80036;stroke-width:1.0;" x1="617.71" x2="609.71" y1="488.5" y2="496.5"/><line style="stroke:#A80036;stroke-width:1.0;" x1="617.71" x2="609.71" y1="488.5" y2="480.5"/><line style="stroke:#A80036;stroke-width:1.0;" x1="617.71" x2="609.71" y1="488.5" y2="488.5"/><!--MD5=[3fa415e4cc04abb8e88e61bde44903fe]
link Root to Account--><path codeLine="38" d="M618.98,102.2 C650.93,135.37 698.37,192.4 715,253 C730.54,309.65 725.41,376.87 717.96,424.78 " fill="none" id="Root-to-Account" style="stroke:#A80036;stroke-width:1.0;"/><polygon fill="none" points="724.82,426.15,714.56,444.68,711.02,423.79,724.82,426.15" style="stroke:#A80036;stroke-width:1.0;"/><!--MD5=[33ae7c9fddac52a75b546961b7f24f14]
link Admin to Account--><path codeLine="39" d="M644.3,228.93 C653.82,235.6 662.54,243.57 669,253 C703.4,303.26 710.07,373.7 709.57,424.24 " fill="none" id="Admin-to-Account" style="stroke:#A80036;stroke-width:1.0;"/><polygon fill="none" points="716.56,424.77,708.98,444.56,702.56,424.36,716.56,424.77" style="stroke:#A80036;stroke-width:1.0;"/><!--MD5=[87e802f94dff5db0b14b612664619da8]
link User to Account--><path codeLine="40" d="M597.13,370.12 C606.65,380.21 617.32,391.56 627,402 C635.33,410.98 644.11,420.53 652.66,429.87 " fill="none" id="User-to-Account" style="stroke:#A80036;stroke-width:1.0;"/><polygon fill="none" points="657.94,425.26,666.26,444.75,647.6,434.71,657.94,425.26" style="stroke:#A80036;stroke-width:1.0;"/><!--MD5=[12bbbf4f683c45c789c2416586493504]
link Root to Admin--><path codeLine="42" d="M584.67,110.48 C583.48,124.09 582.12,139.54 580.89,153.64 " fill="none" id="Root-Admin" style="stroke:#A80036;stroke-width:1.0;"/><line style="stroke:#A80036;stroke-width:1.0;" x1="580.8811" x2="588.1492" y1="153.7908" y2="161.76"/><line style="stroke:#A80036;stroke-width:1.0;" x1="580.8811" x2="572.2108" y1="153.7908" y2="161.76"/><line style="stroke:#A80036;stroke-width:1.0;" x1="580.8811" x2="580.18" y1="153.7908" y2="161.76"/><line style="stroke:#A80036;stroke-width:1.0;" x1="581.0549" x2="589.0241" y1="105.8741" y2="106.5751"/><line style="stroke:#A80036;stroke-width:1.0;" x1="580.792" x2="588.7612" y1="108.8625" y2="109.5636"/><line style="stroke:#A80036;stroke-width:1.0;" x1="584.6889" x2="585.39" y1="110.2092" y2="102.24"/><!--MD5=[478425156ee10c55cac736d5b0b47b37]
link Admin to User--><path codeLine="43" d="M574.45,244.21 C573.4,262.31 572.2,283.06 571.2,300.47 " fill="none" id="Admin-User" style="stroke:#A80036;stroke-width:1.0;"/><line style="stroke:#A80036;stroke-width:1.0;" x1="571.1772" x2="578.7069" y1="300.7431" y2="308.73"/><line style="stroke:#A80036;stroke-width:1.0;" x1="571.1772" x2="562.7331" y1="300.7431" y2="308.73"/><line style="stroke:#A80036;stroke-width:1.0;" x1="571.1772" x2="570.72" y1="300.7431" y2="308.73"/><line style="stroke:#A80036;stroke-width:1.0;" x1="570.6912" x2="578.6773" y1="239.7873" y2="240.2588"/><line style="stroke:#A80036;stroke-width:1.0;" x1="570.5144" x2="578.5005" y1="242.7821" y2="243.2536"/><line style="stroke:#A80036;stroke-width:1.0;" x1="574.4485" x2="574.92" y1="244.0161" y2="236.03"/><!--MD5=[ad8b54e37159f501f86126b68a5588a9]
link Admin to Quiz--><path codeLine="64" d="M502.48,234.16 C491.36,240.04 480.21,246.4 470,253 C452.76,264.15 435.1,277.71 419.35,290.72 " fill="none" id="Admin-Quiz" style="stroke:#A80036;stroke-width:1.0;"/><line style="stroke:#A80036;stroke-width:1.0;" x1="419.3211" x2="418.3071" y1="290.7429" y2="295.87"/><line style="stroke:#A80036;stroke-width:1.0;" x1="419.3211" x2="408.0529" y1="290.7429" y2="295.87"/><line style="stroke:#A80036;stroke-width:1.0;" x1="419.3211" x2="413.18" y1="290.7429" y2="295.87"/><line style="stroke:#A80036;stroke-width:1.0;" x1="504.3742" x2="508.0713" y1="228.6713" y2="235.7658"/><line style="stroke:#A80036;stroke-width:1.0;" x1="501.7138" x2="505.4109" y1="230.0577" y2="237.1522"/><line style="stroke:#A80036;stroke-width:1.0;" x1="502.6755" x2="509.77" y1="234.0671" y2="230.37"/><!--MD5=[9961e448d5a0b67439852b1b5ffe48d7]
link Quiz to Question--><path codeLine="65" d="M365.31,391.28 C365.08,408.03 364.83,426.52 364.61,442.78 " fill="none" id="Quiz-Question" style="stroke:#A80036;stroke-width:1.0;"/><line style="stroke:#A80036;stroke-width:1.0;" x1="364.6002" x2="372.4994" y1="443.0506" y2="451.05"/><line style="stroke:#A80036;stroke-width:1.0;" x1="364.6002" x2="356.5006" y1="443.0506" y2="451.05"/><line style="stroke:#A80036;stroke-width:1.0;" x1="364.6002" x2="364.5" y1="443.0506" y2="451.05"/><line style="stroke:#A80036;stroke-width:1.0;" x1="361.3633" x2="369.3625" y1="386.9625" y2="387.0767"/><line style="stroke:#A80036;stroke-width:1.0;" x1="361.3204" x2="369.3196" y1="389.9621" y2="390.0764"/><line style="stroke:#A80036;stroke-width:1.0;" x1="365.3057" x2="365.42" y1="391.0192" y2="383.02"/><!--MD5=[6926d5174a3032b1dcc6c5d6f900c16b]
link Question to Answer--><path codeLine="66" d="M363.36,533.63 C363.13,549.57 362.87,567.56 362.64,583.53 " fill="none" id="Question-Answer" style="stroke:#A80036;stroke-width:1.0;"/><line style="stroke:#A80036;stroke-width:1.0;" x1="362.6343" x2="370.5192" y1="583.6708" y2="591.67"/><line style="stroke:#A80036;stroke-width:1.0;" x1="362.6343" x2="354.5208" y1="583.6708" y2="591.67"/><line style="stroke:#A80036;stroke-width:1.0;" x1="362.6343" x2="362.52" y1="583.6708" y2="591.67"/><line style="stroke:#A80036;stroke-width:1.0;" x1="359.4233" x2="367.4225" y1="529.4725" y2="529.5867"/><line style="stroke:#A80036;stroke-width:1.0;" x1="359.3804" x2="367.3796" y1="532.4721" y2="532.5864"/><line style="stroke:#A80036;stroke-width:1.0;" x1="363.3657" x2="363.48" y1="533.5292" y2="525.53"/><!--MD5=[74559f7454c9440187fcd2b8979ea488]
link User to QuizAttempt--><path codeLine="81" d="M532.44,303.56 C506.06,280.66 468.22,253.64 428.5,244.5 C401.43,238.27 330.57,238.27 303.5,244.5 C267.35,252.82 231.21,272.16 202.05,291.24 " fill="none" id="User-QuizAttempt" style="stroke:#A80036;stroke-width:1.0;"/><line style="stroke:#A80036;stroke-width:1.0;" x1="201.8308" x2="199.601" y1="291.389" y2="295.82"/><line style="stroke:#A80036;stroke-width:1.0;" x1="201.8308" x2="190.739" y1="291.389" y2="295.82"/><line style="stroke:#A80036;stroke-width:1.0;" x1="201.8308" x2="195.17" y1="291.389" y2="295.82"/><line style="stroke:#A80036;stroke-width:1.0;" x1="538.2169" x2="532.9136" y1="303.3336" y2="309.3231"/><line style="stroke:#A80036;stroke-width:1.0;" x1="535.9709" x2="530.6675" y1="301.3448" y2="307.3343"/><line style="stroke:#A80036;stroke-width:1.0;" x1="532.5705" x2="538.56" y1="303.6766" y2="308.98"/><!--MD5=[dcf3d87e605c2a7c5ae1c4db033e2cd7]
link QuizAttempt to QuestionAttempt--><path codeLine="82" d="M140.04,391.28 C140.38,408.03 140.76,426.52 141.09,442.78 " fill="none" id="QuizAttempt-QuestionAttempt" style="stroke:#A80036;stroke-width:1.0;"/><line style="stroke:#A80036;stroke-width:1.0;" x1="141.1029" x2="149.2585" y1="443.0515" y2="451.05"/><line style="stroke:#A80036;stroke-width:1.0;" x1="141.1029" x2="133.2615" y1="443.0515" y2="451.05"/><line style="stroke:#A80036;stroke-width:1.0;" x1="141.1029" x2="141.26" y1="443.0515" y2="451.05"/><line style="stroke:#A80036;stroke-width:1.0;" x1="135.9493" x2="143.9478" y1="387.0978" y2="386.9407"/><line style="stroke:#A80036;stroke-width:1.0;" x1="136.0082" x2="144.0067" y1="390.0972" y2="389.9401"/><line style="stroke:#A80036;stroke-width:1.0;" x1="140.0271" x2="139.87" y1="391.0185" y2="383.02"/><!--MD5=[f5b27d2b458cce53d14bef6d78d36d2c]
link QuestionAttempt to Answer--><path codeLine="83" d="M206.3,529.98 C235.61,548.43 270.19,570.2 299.31,588.53 " fill="none" id="QuestionAttempt-Answer" style="stroke:#A80036;stroke-width:1.0;"/><line style="stroke:#A80036;stroke-width:1.0;" x1="299.4273" x2="306.2" y1="588.612" y2="586.0973"/><line style="stroke:#A80036;stroke-width:1.0;" x1="299.4273" x2="306.2" y1="588.612" y2="599.6427"/><line style="stroke:#A80036;stroke-width:1.0;" x1="299.4273" x2="306.2" y1="588.612" y2="592.87"/><line style="stroke:#A80036;stroke-width:1.0;" x1="200.4874" x2="204.7453" y1="531.0453" y2="524.2726"/><line style="stroke:#A80036;stroke-width:1.0;" x1="203.0272" x2="207.2851" y1="532.6421" y2="525.8694"/><line style="stroke:#A80036;stroke-width:1.0;" x1="206.0027" x2="199.23" y1="529.788" y2="525.53"/><!--MD5=[2df406585df66242a34271ebeb19bb08]
@startuml

note as GlobalNote
	<b><u>Class/Entity relationship diagram</u></b>
	Each class will have and id field
	Some classes will have a creation and updated field
end note

package "Authentication" {

	class Session {
		user: Account
	}

	abstract class Account {
		username: string
		password: string
		sessions: [Sessions]
	}

	Session }-|| Account
}

package "Accounts" {

	class Root {
		admins: [Admin]
	}

	class Admin {
		createdUsers: [Users]
		createdQuizzes: [Quiz]
	}

	class User {
		quizAttempts: [QuizAttempt]
	}

	Root - -|> Account
	Admin - -|> Account
	User - -|> Account

	Root ||- -{ Admin
	Admin ||- -{ User
}

package "Quiz data" {

	class Quiz {
		name: string
		description: string?
		questions: [Question]
	}

	class Question {
		text: string
		answers: [Answer]
	}

	class Answer {
		text: string
		isCorrect: boolean
	}

	Admin ||- -{ Quiz
	Quiz ||- -{ Question
	Question ||- -{ Answer
}

package "Quiz attempt data" {
	class QuizAttempt {
		attemptDate: Date
		quiz: Quiz
		questionAttempts: [QuestionAttempt]
	}

	class QuestionAttempt {
		questionAttempt: QuestionAttempt
		selectedAnswer: Answer?
	}

	User||-{ QuizAttempt
	QuizAttempt ||- -{ QuestionAttempt
	QuestionAttempt ||- -{ Answer
}

@enduml

PlantUML version 1.2022.0(Tue Jan 11 16:16:42 GMT 2022)
(GPL source distribution)
Java Runtime: Java(TM) SE Runtime Environment
JVM: Java HotSpot(TM) 64-Bit Server VM
Default Encoding: UTF-8
Language: en
Country: GB
--></g></svg>