<?xml version="1.0" encoding="UTF-8" standalone="no"?><svg xmlns="http://www.w3.org/2000/svg" xmlns:xlink="http://www.w3.org/1999/xlink" contentScriptType="application/ecmascript" contentStyleType="text/css" height="771px" preserveAspectRatio="none" style="width:811px;height:771px;background:#FFFFFF;" version="1.1" viewBox="0 0 811 771" width="811px" zoomAndPan="magnify"><defs><filter height="300%" id="fq3yjd2iixj9g" width="300%" x="-1" y="-1"><feGaussianBlur result="blurOut" stdDeviation="2.0"/><feColorMatrix in="blurOut" result="blurOut2" type="matrix" values="0 0 0 0 0 0 0 0 0 0 0 0 0 0 0 0 0 0 .4 0"/><feOffset dx="4.0" dy="4.0" in="blurOut2" result="blurOut3"/><feBlend in="SourceGraphic" in2="blurOut3" mode="normal"/></filter></defs><g><ellipse cx="409" cy="20" fill="#000000" filter="url(#fq3yjd2iixj9g)" rx="10" ry="10" style="stroke:none;stroke-width:1.0;"/><rect fill="#FEFECE" filter="url(#fq3yjd2iixj9g)" height="34.1328" rx="12.5" ry="12.5" style="stroke:#A80036;stroke-width:1.5;" width="47" x="385.5" y="50"/><text fill="#000000" font-family="sans-serif" font-size="12" lengthAdjust="spacing" textLength="27" x="395.5" y="71.6016">login</text><rect fill="#FEFECE" filter="url(#fq3yjd2iixj9g)" height="34.1328" rx="12.5" ry="12.5" style="stroke:#A80036;stroke-width:1.5;" width="92" x="363" y="104.1328"/><text fill="#000000" font-family="sans-serif" font-size="12" lengthAdjust="spacing" textLength="72" x="373" y="125.7344">admin home</text><polygon fill="#FEFECE" filter="url(#fq3yjd2iixj9g)" points="32,202.2656,140,202.2656,152,214.2656,140,226.2656,32,226.2656,20,214.2656,32,202.2656" style="stroke:#A80036;stroke-width:1.5;"/><text fill="#000000" font-family="sans-serif" font-size="11" lengthAdjust="spacing" textLength="108" x="32" y="218.4229">goto to user control</text><rect fill="#FEFECE" filter="url(#fq3yjd2iixj9g)" height="34.1328" rx="12.5" ry="12.5" style="stroke:#A80036;stroke-width:1.5;" width="99" x="36.5" y="246.2656"/><text fill="#000000" font-family="sans-serif" font-size="12" lengthAdjust="spacing" textLength="79" x="46.5" y="267.8672">add new user</text><rect fill="#FEFECE" filter="url(#fq3yjd2iixj9g)" height="34.1328" rx="12.5" ry="12.5" style="stroke:#A80036;stroke-width:1.5;" width="143" x="14.5" y="315.3984"/><text fill="#000000" font-family="sans-serif" font-size="12" lengthAdjust="spacing" textLength="123" x="24.5" y="337">require password set</text><polygon fill="#FEFECE" filter="url(#fq3yjd2iixj9g)" points="337,202.2656,444,202.2656,456,214.2656,444,226.2656,337,226.2656,325,214.2656,337,202.2656" style="stroke:#A80036;stroke-width:1.5;"/><text fill="#000000" font-family="sans-serif" font-size="11" lengthAdjust="spacing" textLength="107" x="337" y="218.4229">goto to quiz control</text><polygon fill="#FEFECE" filter="url(#fq3yjd2iixj9g)" points="220,271.2656,266,271.2656,278,283.2656,266,295.2656,220,295.2656,208,283.2656,220,271.2656" style="stroke:#A80036;stroke-width:1.5;"/><text fill="#000000" font-family="sans-serif" font-size="11" lengthAdjust="spacing" textLength="46" x="220" y="287.4229">add quiz</text><rect fill="#FEFECE" filter="url(#fq3yjd2iixj9g)" height="48.2656" rx="12.5" ry="12.5" style="stroke:#A80036;stroke-width:1.5;" width="112" x="187" y="315.2656"/><text fill="#000000" font-family="sans-serif" font-size="12" lengthAdjust="spacing" textLength="92" x="197" y="336.8672">create new quiz</text><text fill="#000000" font-family="sans-serif" font-size="12" lengthAdjust="spacing" textLength="86" x="197" y="351">:set quiz name</text><rect fill="#FEFECE" filter="url(#fq3yjd2iixj9g)" height="34.1328" rx="12.5" ry="12.5" style="stroke:#A80036;stroke-width:1.5;" width="151" x="167.5" y="397.5313"/><text fill="#000000" font-family="sans-serif" font-size="12" lengthAdjust="spacing" textLength="131" x="177.5" y="419.1328">add/remove questions</text><rect fill="#FEFECE" filter="url(#fq3yjd2iixj9g)" height="34.1328" rx="12.5" ry="12.5" style="stroke:#A80036;stroke-width:1.5;" width="143" x="171.5" y="466.6641"/><text fill="#000000" font-family="sans-serif" font-size="12" lengthAdjust="spacing" textLength="123" x="181.5" y="488.2656">add/remove answers</text><polygon fill="#FEFECE" filter="url(#fq3yjd2iixj9g)" points="400.5,271.2656,446.5,271.2656,458.5,283.2656,446.5,295.2656,400.5,295.2656,388.5,283.2656,400.5,271.2656" style="stroke:#A80036;stroke-width:1.5;"/><text fill="#000000" font-family="sans-serif" font-size="11" lengthAdjust="spacing" textLength="46" x="400.5" y="287.4229">edit quiz</text><rect fill="#FEFECE" filter="url(#fq3yjd2iixj9g)" height="48.2656" rx="12.5" ry="12.5" style="stroke:#A80036;stroke-width:1.5;" width="158" x="344.5" y="315.2656"/><text fill="#000000" font-family="sans-serif" font-size="12" lengthAdjust="spacing" textLength="134" x="358.5" y="336.8672">change quiz properties</text><text fill="#000000" font-family="sans-serif" font-size="12" lengthAdjust="spacing" textLength="135" x="354.5" y="351">:add/remove questions</text><rect fill="#FEFECE" filter="url(#fq3yjd2iixj9g)" height="34.1328" rx="12.5" ry="12.5" style="stroke:#A80036;stroke-width:1.5;" width="154" x="346.5" y="397.5313"/><text fill="#000000" font-family="sans-serif" font-size="12" lengthAdjust="spacing" textLength="134" x="356.5" y="419.1328">change quiz properties</text><rect fill="#FEFECE" filter="url(#fq3yjd2iixj9g)" height="34.1328" rx="12.5" ry="12.5" style="stroke:#A80036;stroke-width:1.5;" width="143" x="352" y="466.6641"/><text fill="#000000" font-family="sans-serif" font-size="12" lengthAdjust="spacing" textLength="123" x="362" y="488.2656">add/remove answers</text><rect fill="#FEFECE" filter="url(#fq3yjd2iixj9g)" height="34.1328" rx="12.5" ry="12.5" style="stroke:#A80036;stroke-width:1.5;" width="170" x="338.5" y="520.7969"/><text fill="#000000" font-family="sans-serif" font-size="12" lengthAdjust="spacing" textLength="150" x="348.5" y="542.3984">change answer properties</text><rect fill="#FEFECE" filter="url(#fq3yjd2iixj9g)" height="34.1328" rx="12.5" ry="12.5" style="stroke:#A80036;stroke-width:1.5;" width="85" x="518.5" y="428.0313"/><text fill="#000000" font-family="sans-serif" font-size="12" lengthAdjust="spacing" textLength="65" x="528.5" y="449.6328">delete quiz</text><polygon fill="#FEFECE" filter="url(#fq3yjd2iixj9g)" points="635.5,202.2656,741.5,202.2656,753.5,214.2656,741.5,226.2656,635.5,226.2656,623.5,214.2656,635.5,202.2656" style="stroke:#A80036;stroke-width:1.5;"/><text fill="#000000" font-family="sans-serif" font-size="11" lengthAdjust="spacing" textLength="106" x="635.5" y="218.4229">goto to preferences</text><rect fill="#FEFECE" filter="url(#fq3yjd2iixj9g)" height="34.1328" rx="12.5" ry="12.5" style="stroke:#A80036;stroke-width:1.5;" width="122" x="627.5" y="246.2656"/><text fill="#000000" font-family="sans-serif" font-size="12" lengthAdjust="spacing" textLength="102" x="637.5" y="267.8672">preferences page</text><rect fill="#FEFECE" filter="url(#fq3yjd2iixj9g)" height="34.1328" rx="12.5" ry="12.5" style="stroke:#A80036;stroke-width:1.5;" width="122" x="627.5" y="315.3984"/><text fill="#000000" font-family="sans-serif" font-size="12" lengthAdjust="spacing" textLength="102" x="637.5" y="337">update username</text><rect fill="#FEFECE" filter="url(#fq3yjd2iixj9g)" height="34.1328" rx="12.5" ry="12.5" style="stroke:#A80036;stroke-width:1.5;" width="121" x="628" y="383.5313"/><text fill="#000000" font-family="sans-serif" font-size="12" lengthAdjust="spacing" textLength="101" x="638" y="405.1328">update password</text><polygon fill="#FEFECE" filter="url(#fq3yjd2iixj9g)" points="409,158.2656,421,170.2656,409,182.2656,397,170.2656,409,158.2656" style="stroke:#A80036;stroke-width:1.5;"/><polygon fill="#FEFECE" filter="url(#fq3yjd2iixj9g)" points="368,614.9297,450,614.9297,462,626.9297,450,638.9297,368,638.9297,356,626.9297,368,614.9297" style="stroke:#A80036;stroke-width:1.5;"/><text fill="#000000" font-family="sans-serif" font-size="11" lengthAdjust="spacing" textLength="82" x="368" y="631.0869">selected logout</text><text fill="#000000" font-family="sans-serif" font-size="11" lengthAdjust="spacing" textLength="14" x="462" y="624.6094">no</text><rect fill="#FEFECE" filter="url(#fq3yjd2iixj9g)" height="34.1328" rx="12.5" ry="12.5" style="stroke:#A80036;stroke-width:1.5;" width="55" x="381.5" y="680.2051"/><text fill="#000000" font-family="sans-serif" font-size="12" lengthAdjust="spacing" textLength="35" x="391.5" y="701.8066">logout</text><ellipse cx="409" cy="744.3379" fill="#FFFFFF" filter="url(#fq3yjd2iixj9g)" rx="10" ry="10" style="stroke:#000000;stroke-width:1.5;"/><line style="stroke:#000000;stroke-width:2.5;" x1="402.8128" x2="415.1872" y1="738.1507" y2="750.5251"/><line style="stroke:#000000;stroke-width:2.5;" x1="415.1872" x2="402.8128" y1="738.1507" y2="750.5251"/><line style="stroke:#A80036;stroke-width:1.5;" x1="409" x2="409" y1="30" y2="50"/><polygon fill="#A80036" points="405,40,409,50,413,40,409,44" style="stroke:#A80036;stroke-width:1.0;"/><line style="stroke:#A80036;stroke-width:1.5;" x1="409" x2="409" y1="84.1328" y2="104.1328"/><polygon fill="#A80036" points="405,94.1328,409,104.1328,413,94.1328,409,98.1328" style="stroke:#A80036;stroke-width:1.0;"/><line style="stroke:#A80036;stroke-width:1.5;" x1="86" x2="86" y1="280.3984" y2="315.3984"/><polygon fill="#A80036" points="82,305.3984,86,315.3984,90,305.3984,86,309.3984" style="stroke:#A80036;stroke-width:1.0;"/><line style="stroke:#A80036;stroke-width:1.5;" x1="243" x2="243" y1="363.5313" y2="397.5313"/><polygon fill="#A80036" points="239,387.5313,243,397.5313,247,387.5313,243,391.5313" style="stroke:#A80036;stroke-width:1.0;"/><line style="stroke:#A80036;stroke-width:1.5;" x1="243" x2="243" y1="431.6641" y2="466.6641"/><polygon fill="#A80036" points="239,456.6641,243,466.6641,247,456.6641,243,460.6641" style="stroke:#A80036;stroke-width:1.0;"/><line style="stroke:#A80036;stroke-width:1.5;" x1="423.5" x2="423.5" y1="363.5313" y2="397.5313"/><polygon fill="#A80036" points="419.5,387.5313,423.5,397.5313,427.5,387.5313,423.5,391.5313" style="stroke:#A80036;stroke-width:1.0;"/><line style="stroke:#A80036;stroke-width:1.5;" x1="423.5" x2="423.5" y1="431.6641" y2="466.6641"/><polygon fill="#A80036" points="419.5,456.6641,423.5,466.6641,427.5,456.6641,423.5,460.6641" style="stroke:#A80036;stroke-width:1.0;"/><line style="stroke:#A80036;stroke-width:1.5;" x1="423.5" x2="423.5" y1="500.7969" y2="520.7969"/><polygon fill="#A80036" points="419.5,510.7969,423.5,520.7969,427.5,510.7969,423.5,514.7969" style="stroke:#A80036;stroke-width:1.0;"/><line style="stroke:#A80036;stroke-width:1.5;" x1="243" x2="243" y1="295.2656" y2="315.2656"/><polygon fill="#A80036" points="239,305.2656,243,315.2656,247,305.2656,243,309.2656" style="stroke:#A80036;stroke-width:1.0;"/><line style="stroke:#A80036;stroke-width:1.5;" x1="243" x2="243" y1="500.7969" y2="574.9297"/><polygon fill="#A80036" points="239,564.9297,243,574.9297,247,564.9297,243,568.9297" style="stroke:#A80036;stroke-width:1.0;"/><line style="stroke:#A80036;stroke-width:1.5;" x1="423.5" x2="423.5" y1="295.2656" y2="315.2656"/><polygon fill="#A80036" points="419.5,305.2656,423.5,315.2656,427.5,305.2656,423.5,309.2656" style="stroke:#A80036;stroke-width:1.0;"/><line style="stroke:#A80036;stroke-width:1.5;" x1="423.5" x2="423.5" y1="554.9297" y2="574.9297"/><polygon fill="#A80036" points="419.5,564.9297,423.5,574.9297,427.5,564.9297,423.5,568.9297" style="stroke:#A80036;stroke-width:1.0;"/><line style="stroke:#A80036;stroke-width:1.5;" x1="278" x2="388.5" y1="283.2656" y2="283.2656"/><polygon fill="#A80036" points="378.5,279.2656,388.5,283.2656,378.5,287.2656,382.5,283.2656" style="stroke:#A80036;stroke-width:1.0;"/><line style="stroke:#A80036;stroke-width:1.5;" x1="390.5" x2="390.5" y1="226.2656" y2="246.2656"/><line style="stroke:#A80036;stroke-width:1.5;" x1="390.5" x2="243" y1="246.2656" y2="246.2656"/><line style="stroke:#A80036;stroke-width:1.5;" x1="243" x2="243" y1="246.2656" y2="271.2656"/><polygon fill="#A80036" points="239,261.2656,243,271.2656,247,261.2656,243,265.2656" style="stroke:#A80036;stroke-width:1.0;"/><line style="stroke:#A80036;stroke-width:1.5;" x1="458.5" x2="561" y1="283.2656" y2="283.2656"/><line style="stroke:#A80036;stroke-width:1.5;" x1="561" x2="561" y1="283.2656" y2="428.0313"/><polygon fill="#A80036" points="557,418.0313,561,428.0313,565,418.0313,561,422.0313" style="stroke:#A80036;stroke-width:1.0;"/><line style="stroke:#A80036;stroke-width:1.5;" x1="561" x2="561" y1="462.1641" y2="574.9297"/><polygon fill="#A80036" points="557,564.9297,561,574.9297,565,564.9297,561,568.9297" style="stroke:#A80036;stroke-width:1.0;"/><line style="stroke:#A80036;stroke-width:1.5;" x1="243" x2="561" y1="574.9297" y2="574.9297"/><line style="stroke:#A80036;stroke-width:1.5;" x1="688.5" x2="688.5" y1="280.3984" y2="315.3984"/><polygon fill="#A80036" points="684.5,305.3984,688.5,315.3984,692.5,305.3984,688.5,309.3984" style="stroke:#A80036;stroke-width:1.0;"/><line style="stroke:#A80036;stroke-width:1.5;" x1="688.5" x2="688.5" y1="349.5313" y2="383.5313"/><polygon fill="#A80036" points="684.5,373.5313,688.5,383.5313,692.5,373.5313,688.5,377.5313" style="stroke:#A80036;stroke-width:1.0;"/><line style="stroke:#A80036;stroke-width:1.5;" x1="86" x2="86" y1="226.2656" y2="246.2656"/><polygon fill="#A80036" points="82,236.2656,86,246.2656,90,236.2656,86,240.2656" style="stroke:#A80036;stroke-width:1.0;"/><line style="stroke:#A80036;stroke-width:1.5;" x1="86" x2="86" y1="349.5313" y2="594.9297"/><polygon fill="#A80036" points="82,584.9297,86,594.9297,90,584.9297,86,588.9297" style="stroke:#A80036;stroke-width:1.0;"/><line style="stroke:#A80036;stroke-width:1.5;" x1="390.5" x2="390.5" y1="574.9297" y2="594.9297"/><polygon fill="#A80036" points="386.5,584.9297,390.5,594.9297,394.5,584.9297,390.5,588.9297" style="stroke:#A80036;stroke-width:1.0;"/><line style="stroke:#A80036;stroke-width:1.5;" x1="688.5" x2="688.5" y1="226.2656" y2="246.2656"/><polygon fill="#A80036" points="684.5,236.2656,688.5,246.2656,692.5,236.2656,688.5,240.2656" style="stroke:#A80036;stroke-width:1.0;"/><line style="stroke:#A80036;stroke-width:1.5;" x1="688.5" x2="688.5" y1="417.6641" y2="594.9297"/><polygon fill="#A80036" points="684.5,584.9297,688.5,594.9297,692.5,584.9297,688.5,588.9297" style="stroke:#A80036;stroke-width:1.0;"/><line style="stroke:#A80036;stroke-width:1.5;" x1="152" x2="325" y1="214.2656" y2="214.2656"/><polygon fill="#A80036" points="315,210.2656,325,214.2656,315,218.2656,319,214.2656" style="stroke:#A80036;stroke-width:1.0;"/><line style="stroke:#A80036;stroke-width:1.5;" x1="456" x2="623.5" y1="214.2656" y2="214.2656"/><polygon fill="#A80036" points="613.5,210.2656,623.5,214.2656,613.5,218.2656,617.5,214.2656" style="stroke:#A80036;stroke-width:1.0;"/><line style="stroke:#A80036;stroke-width:1.5;" x1="409" x2="409" y1="182.2656" y2="187.2656"/><line style="stroke:#A80036;stroke-width:1.5;" x1="409" x2="86" y1="187.2656" y2="187.2656"/><line style="stroke:#A80036;stroke-width:1.5;" x1="86" x2="86" y1="187.2656" y2="202.2656"/><polygon fill="#A80036" points="82,192.2656,86,202.2656,90,192.2656,86,196.2656" style="stroke:#A80036;stroke-width:1.0;"/><line style="stroke:#A80036;stroke-width:1.5;" x1="753.5" x2="767.5" y1="214.2656" y2="214.2656"/><line style="stroke:#A80036;stroke-width:1.5;" x1="767.5" x2="767.5" y1="214.2656" y2="594.9297"/><polygon fill="#A80036" points="763.5,584.9297,767.5,594.9297,771.5,584.9297,767.5,588.9297" style="stroke:#A80036;stroke-width:1.0;"/><line style="stroke:#A80036;stroke-width:1.5;" x1="86" x2="767.5" y1="594.9297" y2="594.9297"/><line style="stroke:#A80036;stroke-width:1.5;" x1="462" x2="785.5" y1="626.9297" y2="626.9297"/><polygon fill="#A80036" points="781.5,458.0977,785.5,448.0977,789.5,458.0977,785.5,454.0977" style="stroke:#A80036;stroke-width:1.5;"/><line style="stroke:#A80036;stroke-width:1.5;" x1="785.5" x2="785.5" y1="170.2656" y2="626.9297"/><line style="stroke:#A80036;stroke-width:1.5;" x1="785.5" x2="421" y1="170.2656" y2="170.2656"/><polygon fill="#A80036" points="431,166.2656,421,170.2656,431,174.2656,427,170.2656" style="stroke:#A80036;stroke-width:1.0;"/><line style="stroke:#A80036;stroke-width:1.5;" x1="409" x2="409" y1="594.9297" y2="614.9297"/><polygon fill="#A80036" points="405,604.9297,409,614.9297,413,604.9297,409,608.9297" style="stroke:#A80036;stroke-width:1.0;"/><line style="stroke:#A80036;stroke-width:1.5;" x1="409" x2="409" y1="138.2656" y2="158.2656"/><polygon fill="#A80036" points="405,148.2656,409,158.2656,413,148.2656,409,152.2656" style="stroke:#A80036;stroke-width:1.0;"/><line style="stroke:#A80036;stroke-width:1.5;" x1="409" x2="409" y1="638.9297" y2="680.2051"/><polygon fill="#A80036" points="405,670.2051,409,680.2051,413,670.2051,409,674.2051" style="stroke:#A80036;stroke-width:1.0;"/><text fill="#000000" font-family="sans-serif" font-size="11" lengthAdjust="spacing" textLength="18" x="413" y="660.3848">yes</text><line style="stroke:#A80036;stroke-width:1.5;" x1="409" x2="409" y1="714.3379" y2="734.3379"/><polygon fill="#A80036" points="405,724.3379,409,734.3379,413,724.3379,409,728.3379" style="stroke:#A80036;stroke-width:1.0;"/><!--MD5=[3c964f1a0a59f08bfb6a5c8dfa00064c]
@startuml
start
:login;
:admin home;

repeat
	if (goto to user control) then

		:add new user;
		:require password set;

	elseif (goto to quiz control) then
		if (add quiz) then
			:create new quiz
			:set quiz name;
			:add/remove questions;
			:add/remove answers;

		elseif (edit quiz) then
			: change quiz properties
			:add/remove questions;
			:change quiz properties;
			:add/remove answers;
			:change answer properties;
		else
			:delete quiz;
		endif


	elseif (goto to preferences) then
		:preferences page;
		:update username;
		:update password;
	endif
repeat while (selected logout) is (no)
	-> yes;

:logout;

end









' (*) - -> "login"

' -> "admin home page"

' if "goto user control" then
' 	-> "hi"
' 	-> "admin home page"
' endif

' if "goto quiz control page" then
'  	-> "quiz control page"

' 	if ""
' 	-> "admin home page"
' endif

' if "goto preference page" then
' 	-> "preference page"
' 	-> "admin home page"
' endif

' "user control page" -> "add new user"
' -> "user control page"

' "user control page" -> "remove user"
' -> "user control page"
' -> "admin home page" 


' "admin home page" -> "quiz control page" 

' "admin home page" -> "preferences page"
' "preferences page" -> "update username"
' -> "preferences page"

' "preferences page" -> "update password"
' -> "preferences page"


' "preferences page" -> "change admin details"
' -> "admin control page"

' -> "logout"
' -> (*)

@enduml

@startuml
start
:login;
:admin home;

repeat
	if (goto to user control) then

		:add new user;
		:require password set;

	elseif (goto to quiz control) then
		if (add quiz) then
			:create new quiz
			:set quiz name;
			:add/remove questions;
			:add/remove answers;

		elseif (edit quiz) then
			: change quiz properties
			:add/remove questions;
			:change quiz properties;
			:add/remove answers;
			:change answer properties;
		else
			:delete quiz;
		endif


	elseif (goto to preferences) then
		:preferences page;
		:update username;
		:update password;
	endif
repeat while (selected logout) is (no)
	-> yes;

:logout;

end
























@enduml

PlantUML version 1.2022.0(Tue Jan 11 16:16:42 GMT 2022)
(GPL source distribution)
Java Runtime: Java(TM) SE Runtime Environment
JVM: Java HotSpot(TM) 64-Bit Server VM
Default Encoding: UTF-8
Language: en
Country: GB
--></g></svg>