<?xml version="1.0" encoding="UTF-8" standalone="no"?><svg xmlns="http://www.w3.org/2000/svg" xmlns:xlink="http://www.w3.org/1999/xlink" contentScriptType="application/ecmascript" contentStyleType="text/css" height="613px" preserveAspectRatio="none" style="width:658px;height:613px;background:#FFFFFF;" version="1.1" viewBox="0 0 658 613" width="658px" zoomAndPan="magnify"><defs><filter height="300%" id="f1ae9rw861suy7" width="300%" x="-1" y="-1"><feGaussianBlur result="blurOut" stdDeviation="2.0"/><feColorMatrix in="blurOut" result="blurOut2" type="matrix" values="0 0 0 0 0 0 0 0 0 0 0 0 0 0 0 0 0 0 .4 0"/><feOffset dx="4.0" dy="4.0" in="blurOut2" result="blurOut3"/><feBlend in="SourceGraphic" in2="blurOut3" mode="normal"/></filter></defs><g><ellipse cx="319" cy="20" fill="#000000" filter="url(#f1ae9rw861suy7)" rx="10" ry="10" style="stroke:none;stroke-width:1.0;"/><rect fill="#FEFECE" filter="url(#f1ae9rw861suy7)" height="34.1328" rx="12.5" ry="12.5" style="stroke:#A80036;stroke-width:1.5;" width="47" x="295.5" y="50"/><text fill="#000000" font-family="sans-serif" font-size="12" lengthAdjust="spacing" textLength="27" x="305.5" y="71.6016">login</text><rect fill="#FEFECE" filter="url(#f1ae9rw861suy7)" height="34.1328" rx="12.5" ry="12.5" style="stroke:#A80036;stroke-width:1.5;" width="52" x="293" y="148.1328"/><text fill="#000000" font-family="sans-serif" font-size="12" lengthAdjust="spacing" textLength="32" x="303" y="169.7344">home</text><polygon fill="#FEFECE" filter="url(#f1ae9rw861suy7)" points="61.5,202.2656,130.5,202.2656,142.5,214.2656,130.5,226.2656,61.5,226.2656,49.5,214.2656,61.5,202.2656" style="stroke:#A80036;stroke-width:1.5;"/><text fill="#000000" font-family="sans-serif" font-size="11" lengthAdjust="spacing" textLength="69" x="61.5" y="218.4229">goto quizzes</text><rect fill="#FEFECE" filter="url(#f1ae9rw861suy7)" height="34.1328" rx="12.5" ry="12.5" style="stroke:#A80036;stroke-width:1.5;" width="170" x="11" y="246.2656"/><text fill="#000000" font-family="sans-serif" font-size="12" lengthAdjust="spacing" textLength="150" x="21" y="267.8672">show all avaliable quizzes</text><rect fill="#FEFECE" filter="url(#f1ae9rw861suy7)" height="48.2656" rx="12.5" ry="12.5" style="stroke:#A80036;stroke-width:1.5;" width="160" x="16" y="348.876"/><text fill="#000000" font-family="sans-serif" font-size="12" lengthAdjust="spacing" textLength="140" x="26" y="370.4775">goto quiz attemtpt page</text><text fill="#000000" font-family="sans-serif" font-size="12" lengthAdjust="spacing" textLength="104" x="26" y="384.6104">with selected quiz</text><polygon fill="#FEFECE" filter="url(#f1ae9rw861suy7)" points="59.5,300.3984,132.5,300.3984,144.5,312.3984,132.5,324.3984,59.5,324.3984,47.5,312.3984,59.5,300.3984" style="stroke:#A80036;stroke-width:1.5;"/><text fill="#000000" font-family="sans-serif" font-size="11" lengthAdjust="spacing" textLength="18" x="100" y="335.0332">yes</text><text fill="#000000" font-family="sans-serif" font-size="11" lengthAdjust="spacing" textLength="73" x="59.5" y="316.5557">attempts quiz</text><polygon fill="#FEFECE" filter="url(#f1ae9rw861suy7)" points="96,421.6191,108,433.6191,96,445.6191,84,433.6191,96,421.6191" style="stroke:#A80036;stroke-width:1.5;"/><polygon fill="#FEFECE" filter="url(#f1ae9rw861suy7)" points="294.5,202.2656,369.5,202.2656,381.5,214.2656,369.5,226.2656,294.5,226.2656,282.5,214.2656,294.5,202.2656" style="stroke:#A80036;stroke-width:1.5;"/><text fill="#000000" font-family="sans-serif" font-size="11" lengthAdjust="spacing" textLength="75" x="294.5" y="218.4229">goto attempts</text><rect fill="#FEFECE" filter="url(#f1ae9rw861suy7)" height="34.1328" rx="12.5" ry="12.5" style="stroke:#A80036;stroke-width:1.5;" width="169" x="247.5" y="246.2656"/><text fill="#000000" font-family="sans-serif" font-size="12" lengthAdjust="spacing" textLength="149" x="257.5" y="267.8672">show last 5 quiz attempts</text><rect fill="#FEFECE" filter="url(#f1ae9rw861suy7)" height="34.1328" rx="12.5" ry="12.5" style="stroke:#A80036;stroke-width:1.5;" width="190" x="237" y="300.3984"/><text fill="#000000" font-family="sans-serif" font-size="12" lengthAdjust="spacing" textLength="170" x="247" y="322">show results of quiz attempts</text><rect fill="#FEFECE" filter="url(#f1ae9rw861suy7)" height="34.1328" rx="12.5" ry="12.5" style="stroke:#A80036;stroke-width:1.5;" width="264" x="200" y="369.5313"/><text fill="#000000" font-family="sans-serif" font-size="12" lengthAdjust="spacing" textLength="244" x="210" y="391.1328">how question breakdown of quiz attempts</text><polygon fill="#FEFECE" filter="url(#f1ae9rw861suy7)" points="496,202.2656,588,202.2656,600,214.2656,588,226.2656,496,226.2656,484,214.2656,496,202.2656" style="stroke:#A80036;stroke-width:1.5;"/><text fill="#000000" font-family="sans-serif" font-size="11" lengthAdjust="spacing" textLength="92" x="496" y="218.4229">goto preferences</text><rect fill="#FEFECE" filter="url(#f1ae9rw861suy7)" height="34.1328" rx="12.5" ry="12.5" style="stroke:#A80036;stroke-width:1.5;" width="98" x="493" y="246.2656"/><text fill="#000000" font-family="sans-serif" font-size="12" lengthAdjust="spacing" textLength="78" x="503" y="267.8672">set username</text><rect fill="#FEFECE" filter="url(#f1ae9rw861suy7)" height="34.1328" rx="12.5" ry="12.5" style="stroke:#A80036;stroke-width:1.5;" width="97" x="493.5" y="300.3984"/><text fill="#000000" font-family="sans-serif" font-size="12" lengthAdjust="spacing" textLength="77" x="503.5" y="322">set password</text><polygon fill="#FEFECE" filter="url(#f1ae9rw861suy7)" points="319,104.1328,331,116.1328,319,128.1328,307,116.1328,319,104.1328" style="stroke:#A80036;stroke-width:1.5;"/><polygon fill="#FEFECE" filter="url(#f1ae9rw861suy7)" points="278,485.6191,360,485.6191,372,497.6191,360,509.6191,278,509.6191,266,497.6191,278,485.6191" style="stroke:#A80036;stroke-width:1.5;"/><text fill="#000000" font-family="sans-serif" font-size="11" lengthAdjust="spacing" textLength="82" x="278" y="501.7764">selected logout</text><text fill="#000000" font-family="sans-serif" font-size="11" lengthAdjust="spacing" textLength="14" x="372" y="495.2988">no</text><ellipse cx="319" cy="586.8047" fill="#FFFFFF" filter="url(#f1ae9rw861suy7)" rx="10" ry="10" style="stroke:#000000;stroke-width:1.5;"/><line style="stroke:#000000;stroke-width:2.5;" x1="312.8128" x2="325.1872" y1="580.6175" y2="592.9919"/><line style="stroke:#000000;stroke-width:2.5;" x1="325.1872" x2="312.8128" y1="580.6175" y2="592.9919"/><line style="stroke:#A80036;stroke-width:1.5;" x1="319" x2="319" y1="30" y2="50"/><polygon fill="#A80036" points="315,40,319,50,323,40,319,44" style="stroke:#A80036;stroke-width:1.0;"/><line style="stroke:#A80036;stroke-width:1.5;" x1="96" x2="96" y1="324.3984" y2="348.876"/><polygon fill="#A80036" points="92,338.876,96,348.876,100,338.876,96,342.876" style="stroke:#A80036;stroke-width:1.0;"/><line style="stroke:#A80036;stroke-width:1.5;" x1="144.5" x2="186" y1="312.3984" y2="312.3984"/><polygon fill="#A80036" points="182,363.0088,186,373.0088,190,363.0088,186,367.0088" style="stroke:#A80036;stroke-width:1.5;"/><line style="stroke:#A80036;stroke-width:1.5;" x1="186" x2="186" y1="312.3984" y2="433.6191"/><line style="stroke:#A80036;stroke-width:1.5;" x1="186" x2="108" y1="433.6191" y2="433.6191"/><polygon fill="#A80036" points="118,429.6191,108,433.6191,118,437.6191,114,433.6191" style="stroke:#A80036;stroke-width:1.0;"/><line style="stroke:#A80036;stroke-width:1.5;" x1="96" x2="96" y1="397.1416" y2="421.6191"/><polygon fill="#A80036" points="92,411.6191,96,421.6191,100,411.6191,96,415.6191" style="stroke:#A80036;stroke-width:1.0;"/><line style="stroke:#A80036;stroke-width:1.5;" x1="96" x2="96" y1="280.3984" y2="300.3984"/><polygon fill="#A80036" points="92,290.3984,96,300.3984,100,290.3984,96,294.3984" style="stroke:#A80036;stroke-width:1.0;"/><line style="stroke:#A80036;stroke-width:1.5;" x1="332" x2="332" y1="280.3984" y2="300.3984"/><polygon fill="#A80036" points="328,290.3984,332,300.3984,336,290.3984,332,294.3984" style="stroke:#A80036;stroke-width:1.0;"/><line style="stroke:#A80036;stroke-width:1.5;" x1="332" x2="332" y1="334.5313" y2="369.5313"/><polygon fill="#A80036" points="328,359.5313,332,369.5313,336,359.5313,332,363.5313" style="stroke:#A80036;stroke-width:1.0;"/><line style="stroke:#A80036;stroke-width:1.5;" x1="542" x2="542" y1="280.3984" y2="300.3984"/><polygon fill="#A80036" points="538,290.3984,542,300.3984,546,290.3984,542,294.3984" style="stroke:#A80036;stroke-width:1.0;"/><line style="stroke:#A80036;stroke-width:1.5;" x1="96" x2="96" y1="226.2656" y2="246.2656"/><polygon fill="#A80036" points="92,236.2656,96,246.2656,100,236.2656,96,240.2656" style="stroke:#A80036;stroke-width:1.0;"/><line style="stroke:#A80036;stroke-width:1.5;" x1="96" x2="96" y1="445.6191" y2="465.6191"/><polygon fill="#A80036" points="92,455.6191,96,465.6191,100,455.6191,96,459.6191" style="stroke:#A80036;stroke-width:1.0;"/><line style="stroke:#A80036;stroke-width:1.5;" x1="332" x2="332" y1="226.2656" y2="246.2656"/><polygon fill="#A80036" points="328,236.2656,332,246.2656,336,236.2656,332,240.2656" style="stroke:#A80036;stroke-width:1.0;"/><line style="stroke:#A80036;stroke-width:1.5;" x1="332" x2="332" y1="403.6641" y2="465.6191"/><polygon fill="#A80036" points="328,455.6191,332,465.6191,336,455.6191,332,459.6191" style="stroke:#A80036;stroke-width:1.0;"/><line style="stroke:#A80036;stroke-width:1.5;" x1="542" x2="542" y1="226.2656" y2="246.2656"/><polygon fill="#A80036" points="538,236.2656,542,246.2656,546,236.2656,542,240.2656" style="stroke:#A80036;stroke-width:1.0;"/><line style="stroke:#A80036;stroke-width:1.5;" x1="542" x2="542" y1="334.5313" y2="465.6191"/><polygon fill="#A80036" points="538,455.6191,542,465.6191,546,455.6191,542,459.6191" style="stroke:#A80036;stroke-width:1.0;"/><line style="stroke:#A80036;stroke-width:1.5;" x1="142.5" x2="282.5" y1="214.2656" y2="214.2656"/><polygon fill="#A80036" points="272.5,210.2656,282.5,214.2656,272.5,218.2656,276.5,214.2656" style="stroke:#A80036;stroke-width:1.0;"/><line style="stroke:#A80036;stroke-width:1.5;" x1="381.5" x2="484" y1="214.2656" y2="214.2656"/><polygon fill="#A80036" points="474,210.2656,484,214.2656,474,218.2656,478,214.2656" style="stroke:#A80036;stroke-width:1.0;"/><line style="stroke:#A80036;stroke-width:1.5;" x1="319" x2="319" y1="182.2656" y2="187.2656"/><line style="stroke:#A80036;stroke-width:1.5;" x1="319" x2="96" y1="187.2656" y2="187.2656"/><line style="stroke:#A80036;stroke-width:1.5;" x1="96" x2="96" y1="187.2656" y2="202.2656"/><polygon fill="#A80036" points="92,192.2656,96,202.2656,100,192.2656,96,196.2656" style="stroke:#A80036;stroke-width:1.0;"/><line style="stroke:#A80036;stroke-width:1.5;" x1="600" x2="614" y1="214.2656" y2="214.2656"/><line style="stroke:#A80036;stroke-width:1.5;" x1="614" x2="614" y1="214.2656" y2="465.6191"/><polygon fill="#A80036" points="610,455.6191,614,465.6191,618,455.6191,614,459.6191" style="stroke:#A80036;stroke-width:1.0;"/><line style="stroke:#A80036;stroke-width:1.5;" x1="96" x2="614" y1="465.6191" y2="465.6191"/><line style="stroke:#A80036;stroke-width:1.5;" x1="319" x2="319" y1="128.1328" y2="148.1328"/><polygon fill="#A80036" points="315,138.1328,319,148.1328,323,138.1328,319,142.1328" style="stroke:#A80036;stroke-width:1.0;"/><line style="stroke:#A80036;stroke-width:1.5;" x1="372" x2="632" y1="497.6191" y2="497.6191"/><polygon fill="#A80036" points="628,316.876,632,306.876,636,316.876,632,312.876" style="stroke:#A80036;stroke-width:1.5;"/><line style="stroke:#A80036;stroke-width:1.5;" x1="632" x2="632" y1="116.1328" y2="497.6191"/><line style="stroke:#A80036;stroke-width:1.5;" x1="632" x2="331" y1="116.1328" y2="116.1328"/><polygon fill="#A80036" points="341,112.1328,331,116.1328,341,120.1328,337,116.1328" style="stroke:#A80036;stroke-width:1.0;"/><line style="stroke:#A80036;stroke-width:1.5;" x1="319" x2="319" y1="465.6191" y2="485.6191"/><polygon fill="#A80036" points="315,475.6191,319,485.6191,323,475.6191,319,479.6191" style="stroke:#A80036;stroke-width:1.0;"/><line style="stroke:#A80036;stroke-width:1.5;" x1="319" x2="319" y1="84.1328" y2="104.1328"/><polygon fill="#A80036" points="315,94.1328,319,104.1328,323,94.1328,319,98.1328" style="stroke:#A80036;stroke-width:1.0;"/><line style="stroke:#A80036;stroke-width:1.5;" x1="319" x2="319" y1="509.6191" y2="576.8047"/><polygon fill="#A80036" points="315,566.8047,319,576.8047,323,566.8047,319,570.8047" style="stroke:#A80036;stroke-width:1.0;"/><text fill="#000000" font-family="sans-serif" font-size="11" lengthAdjust="spacing" textLength="14" x="323" y="531.0742">no</text><text fill="#000000" font-family="sans-serif" font-size="11" lengthAdjust="spacing" textLength="0" x="326" y="544.0293"/><text fill="#000000" font-family="sans-serif" font-size="11" lengthAdjust="spacing" textLength="38" x="323" y="556.9844">:logout</text><!--MD5=[a2b95c9f24faa6a6fb607ad02c78cf73]
@startuml

start

:login;

repeat

	:home;

	if (goto quizzes) then
		:show all avaliable quizzes;
		if (attempts quiz) then (yes)
			:goto quiz attemtpt page 
			with selected quiz;
		endif
	elseif (goto attempts) then
		:show last 5 quiz attempts;
		:show results of quiz attempts;
		:how question breakdown of quiz attempts;
	elseif (goto preferences) then
		:set username;
		:set password;
	endif
	
repeat while (selected logout) is (no)
	-> no

:logout;

end

@enduml

PlantUML version 1.2022.0(Tue Jan 11 16:16:42 GMT 2022)
(GPL source distribution)
Java Runtime: Java(TM) SE Runtime Environment
JVM: Java HotSpot(TM) 64-Bit Server VM
Default Encoding: UTF-8
Language: en
Country: GB
--></g></svg>